<?xml version="1.0" encoding="UTF-8"?>
<svg id="Capa_2" xmlns="http://www.w3.org/2000/svg" version="1.1" viewBox="0 0 86 70">
  <!-- Generator: Adobe Illustrator 29.6.1, SVG Export Plug-In . SVG Version: 2.1.1 Build 9)  -->
  <g id="Capa_1-2">
    <path d="M78,70H8c-4.4,0-8-3.6-8-8V18c0-4.4,3.6-8,8-8h17.4L30.4,0h25.2l5,10h17.4c4.4,0,8,3.6,8,8v44c0,4.4-3.6,8-8,8ZM8,12c-3.3,0-6,2.7-6,6v44c0,3.3,2.7,6,6,6h70c3.3,0,6-2.7,6-6V18c0-3.3-2.7-6-6-6h-18.6l-5-10h-22.8l-5,10H8ZM43,59c-10.5,0-19-8.5-19-19s8.5-19,19-19,19,8.5,19,19-8.5,19-19,19ZM43,23c-9.4,0-17,7.6-17,17s7.6,17,17,17,17-7.6,17-17-7.6-17-17-17Z"/>
  </g>
</svg>