<?xml version="1.0" encoding="UTF-8"?>
<svg id="Capa_2" data-name="Capa 2" xmlns="http://www.w3.org/2000/svg" viewBox="0 0 79.44 59.06">
  <g id="Capa_2-2" data-name="Capa 2">
    <path d="M66.21,59.06H13.23c-7.29,0-13.23-5.93-13.23-13.23V13.23C0,5.93,5.93,0,13.23,0h52.99c7.29,0,13.23,5.93,13.23,13.23v32.61c0,7.29-5.93,13.23-13.23,13.23ZM13.23,2C7.04,2,2,7.04,2,13.23v32.61c0,6.19,5.04,11.23,11.23,11.23h52.99c6.19,0,11.23-5.04,11.23-11.23V13.23c0-6.19-5.04-11.23-11.23-11.23H13.23ZM29.55,44.46V14.61l27.55,14.92-27.55,14.93ZM31.55,17.96v23.14l21.36-11.57-21.36-11.57Z"/>
  </g>
</svg>